<svg width="512" height="512" xmlns="http://www.w3.org/2000/svg" xmlns:svg="http://www.w3.org/2000/svg" clip-rule="evenodd" fill-rule="evenodd" xml:space="preserve">
 <defs>
  <style>
    .fil0 {fill:#DA3737}
    .fil1 {fill:#DEE6E2}
    .fil2 {fill:#FFFFFF}
    .fil3 {fill:#8E0000;fill-rule:nonzero}
    .fil4 {fill:#C62828;fill-rule:nonzero}
    .fil5 {fill:#F44336;fill-rule:nonzero}
    .fil6 {fill:#FF9800;fill-rule:nonzero}
    .fil7 {fill:#4CAF50;fill-rule:nonzero}
    .fil8 {fill:#4DA6FF;fill-rule:nonzero}
  </style>
 </defs>
  <g id="Icon">
   <path id="Base" class="fil0" d="m48.5,157.02l0,93.56l-44.57,0l0,97.58l44.57,0l0,31.01l207.57,132.83l207.43,-132.47l0,-31.1c15.95,2.07 28.31,15.74 28.31,32.25l16.26,0l0,-81.31c0,-25.49 -19.63,-46.46 -44.57,-48.61l0,-93.61l-96.43,-61.71l-0.02,-0.17l-0.99,-5.53l-1.26,-5.43l-1.52,-5.34l-1.77,-5.22l-2.01,-5.11l-2.26,-4.98l-2.49,-4.84l-2.7,-4.7l-2.92,-4.56l-3.14,-4.4l-3.33,-4.24l-3.53,-4.08l-3.72,-3.9l-3.9,-3.72l-4.08,-3.53l-4.24,-3.33l-4.4,-3.14l-4.56,-2.92l-4.7,-2.71l-4.85,-2.48l-4.97,-2.26l-5.11,-2.01l-5.23,-1.78l-5.33,-1.51l-5.43,-1.26l-5.53,-0.99l-5.62,-0.72l-5.7,-0.43l-5.76,-0.15l-5.76,0.15l-5.7,0.43l-5.62,0.72l-5.53,0.99l-5.43,1.26l-5.33,1.51l-5.23,1.78l-5.11,2.01l-4.98,2.26l-4.84,2.48l-4.7,2.71l-4.56,2.92l-4.4,3.14l-4.24,3.33l-4.08,3.53l-3.9,3.72l-3.72,3.9l-3.53,4.08l-3.33,4.24l-3.14,4.4l-2.92,4.56l-2.7,4.7l-2.49,4.84l-2.26,4.98l-2.01,5.11l-1.77,5.22l-1.52,5.34l-1.26,5.43l-0.99,5.53l0,0.04l-96.45,61.71z"/>
   <path id="d20" class="fil1" d="m143.72,114.85l-60.67,38.71l67.89,-1.47l-0.45,-1.13l-1.77,-5.23l-1.52,-5.33l-1.26,-5.44l-0.99,-5.53l-0.72,-5.62l-0.43,-5.69l-0.09,-3.27l0.01,0zm217.34,37.25l67.61,1.46l-60.39,-38.6l-0.08,3.16l-0.43,5.69l-0.72,5.62l-0.99,5.53l-1.26,5.44l-1.52,5.33l-1.77,5.23l-0.45,1.14zm-227.11,196.06l0.8,2.13l1.24,-2.13l-2.04,0zm19.2,0l-7.12,12.19l220.04,0l-7.13,-12.19l-205.79,0zm223.23,0l1.25,2.13l0.79,-2.13l-2.04,0zm-312.13,0l0,18.39l58.28,-5.36l-4.83,-13.03l-53.45,0zm0,-144.41l0,46.83l17.33,0l-17.33,-46.83zm330.13,144.41l-4.82,13.03l58.19,5.36l0,-18.39l-2.72,0l-0.47,0l-50.18,0zm-95.35,-132.04l1.58,2.68l14,23.91l4.61,7.87l95.21,0l2.91,-7.87l27.21,-73.74l-86.94,-1.91l-3.49,-0.07l-2.07,3.6l-2.93,4.55l-3.13,4.41l-3.33,4.24l-3.54,4.07l-3.71,3.9l-3.9,3.72l-4.08,3.53l-4.24,3.34l-4.4,3.13l-4.56,2.92l-4.7,2.71l-4.85,2.49l-4.98,2.25l-0.67,0.27zm-71.58,4.89l-1.61,2.76l-11.06,18.94l-4.61,7.87l91.69,0l-15.68,-26.82l0,0l-1.62,-2.75l-0.52,0.15l-5.44,1.25l-5.53,0.99l-5.61,0.72l-5.7,0.44l-5.76,0.14l-5.76,-0.14l-5.7,-0.44l-5.62,-0.72l-5.53,-0.99l-5.43,-1.25l-0.51,-0.15zm-69.58,-54.03l-90.8,1.99l30.46,81.61l95.42,0l4.6,-7.88l13.93,-23.86l1.57,-2.69l-0.76,-0.3l-4.97,-2.25l-4.85,-2.49l-4.7,-2.71l-4.56,-2.92l-4.4,-3.13l-4.25,-3.34l-4.07,-3.53l-3.9,-3.72l-3.72,-3.9l-3.53,-4.07l-3.33,-4.24l-3.14,-4.41l-2.92,-4.55l-2.08,-3.61zm289.88,36.77l-17.31,46.83l17.31,0l0,-46.83zm-317.7,171.92l-50.76,4.6l132.53,84.69l-81.77,-89.29l0,0zm19.74,-0.29l106.21,115.71l106.02,-115.71l-212.23,0zm232.35,0.29l-81.78,89.29l132.35,-84.69l-50.57,-4.6l0,0z"/>
   <path id="Ruler" class="fil2" d="m491.81,344.34c-8.65,-7.73 -20.05,-12.45 -32.53,-12.45l-439.09,0l0,-65.05l16.27,0l0,16.27l16.26,0l0,-16.27l16.26,0l0,16.27l16.26,0l0,-16.27l16.27,0l0,16.27l16.26,0l0,-16.27l16.26,0l0,16.27l16.26,0l0,-16.27l16.27,0l0,16.27l16.26,0l0,-16.27l16.26,0l0,16.27l16.26,0l0,-16.27l16.27,0l0,16.27l16.26,0l0,-16.27l16.26,0l0,16.27l16.26,0l0,-16.27l16.27,0l0,16.27l16.26,0l0,-16.27l16.26,0l0,16.27l16.26,0l0,-16.27l16.27,0l0,16.27l16.26,0l0,-16.27l16.26,0l0,16.27l16.26,0l0,-16.27l16.27,0l0,16.27l16.26,0l0,-16.27l16.26,0l0,24.4l16.26,0l0,-19.88c9.68,5.65 16.27,16.02 16.27,28.01l0,44.97z"/>
   <g id="Scale">
    <path id="ScaleFace" class="fil2" d="m256,14.77c53.81,0 97.58,43.78 97.58,97.58c0,53.8 -43.77,97.58 -97.58,97.58c-53.81,0 -97.58,-43.78 -97.58,-97.58c0,-53.8 43.77,-97.58 97.58,-97.58z"/>
    <path id="ScaleNeedle" class="fil0" d="m256,104.22c4.49,0 8.13,3.64 8.13,8.13c0,4.49 -3.64,8.13 -8.13,8.13c-4.49,0 -8.13,-3.64 -8.13,-8.13c0,-4.49 3.64,-8.13 8.13,-8.13zm0,32.52c13.45,0 24.39,-10.94 24.39,-24.39c0,-10.59 -6.82,-19.53 -16.26,-22.9l0,-58.41l-16.26,0l0,58.41c-9.45,3.37 -16.26,12.31 -16.26,22.9c0,13.45 10.94,24.39 24.39,24.39z"/>
    <g id="ScaleGrades">
     <path id="ScaleGrade6" class="fil3" d="m346.44,117.73l-20.75,0l0,-9.24l20.82,0c0.05,1.28 0.09,2.57 0.09,3.86c0,1.81 -0.06,3.6 -0.16,5.38z"/>
     <path id="ScaleGrade5" class="fil4" d="m331.71,62.65l-16.41,12.81l-5.68,-7.27l16.62,-12.99c1.95,2.38 3.77,4.87 5.47,7.45z"/>
     <path id="ScaleGrade4" class="fil5" d="m288.67,27.85l-6.46,19.89l-8.79,-2.86l6.48,-19.92c2.99,0.82 5.91,1.78 8.77,2.89z"/>
     <path id="ScaleGrade3" class="fil6" d="m232.96,24.73l5.79,20.19l-8.88,2.55l-5.72,-19.93c2.87,-1.09 5.81,-2.03 8.81,-2.81z"/>
     <path id="ScaleGrade2" class="fil7" d="m185.2,55.9l16.9,12.27l-5.43,7.48l-16.87,-12.26c1.67,-2.59 3.48,-5.09 5.4,-7.49z"/>
     <path id="ScaleGrade1" class="fil8" d="m165.48,108.67l21.01,0l0,9.24l-20.92,0c-0.11,-1.84 -0.17,-3.69 -0.17,-5.56c0,-1.23 0.04,-2.45 0.08,-3.68z"/>
    </g>
   </g>
  </g>
</svg>
